<mxfile host="" modified="2020-06-12T12:01:17.281Z" agent="5.0 (X11; Linux x86_64) AppleWebKit/537.36 (KHTML, like Gecko) Code/1.45.1 Chrome/78.0.3904.130 Electron/7.2.4 Safari/537.36" etag="ULhYTrMDGbeLpXC1M0mG" version="13.1.3">
    <diagram id="6hGFLwfOUW9BJ-s0fimq" name="Page-1">
        <mxGraphModel dx="1687" dy="840" grid="1" gridSize="10" guides="1" tooltips="1" connect="1" arrows="1" fold="1" page="1" pageScale="1" pageWidth="827" pageHeight="1169" background="#ffffff" math="0" shadow="0">
            <root>
                <mxCell id="0"/>
                <mxCell id="1" parent="0"/>
                <mxCell id="71" value="" style="group;labelBackgroundColor=none;fillColor=#ffffff;fontColor=#000000;strokeColor=#000000;" parent="1" vertex="1" connectable="0">
                    <mxGeometry x="50" y="124.5" width="310" height="271" as="geometry"/>
                </mxCell>
                <mxCell id="72" value="browser" style="whiteSpace=wrap;html=1;rounded=0;fillColor=#FFCCE6;fontColor=#000000;glass=0;shadow=0;verticalAlign=top;labelBackgroundColor=none;strokeColor=#080808;" parent="71" vertex="1">
                    <mxGeometry width="310" height="271" as="geometry"/>
                </mxCell>
                <mxCell id="73" value="html page&lt;br&gt;&lt;br&gt;&lt;br&gt;&lt;br&gt;&amp;lt;markup&amp;gt;" style="whiteSpace=wrap;html=1;rounded=0;shadow=0;glass=0;fillColor=#BDBDBD;fontColor=#000000;verticalAlign=top;labelBackgroundColor=none;strokeColor=#030303;" parent="71" vertex="1">
                    <mxGeometry x="20" y="40" width="140" height="210" as="geometry"/>
                </mxCell>
                <mxCell id="74" value="stimulusjs charts controller&lt;br&gt;&lt;br&gt;- watch markup&lt;br&gt;- fetch json and create graph" style="whiteSpace=wrap;html=1;rounded=0;shadow=0;glass=0;fillColor=#C7C7C7;fontColor=#000000;verticalAlign=top;labelBackgroundColor=none;strokeColor=#030303;" parent="71" vertex="1">
                    <mxGeometry x="170" y="40" width="120" height="130" as="geometry"/>
                </mxCell>
                <mxCell id="75" value="" style="endArrow=classic;html=1;fontColor=#000000;exitX=0.5;exitY=1;exitDx=0;exitDy=0;labelBackgroundColor=none;strokeColor=#000000;" parent="71" source="74" target="78" edge="1">
                    <mxGeometry width="50" height="50" relative="1" as="geometry">
                        <mxPoint x="480" y="410" as="sourcePoint"/>
                        <mxPoint x="530" y="360" as="targetPoint"/>
                    </mxGeometry>
                </mxCell>
                <mxCell id="76" value="" style="group;labelBackgroundColor=none;fontColor=#000000;fillColor=#FFFFFF;" parent="71" vertex="1" connectable="0">
                    <mxGeometry x="30" y="170" width="120" height="70" as="geometry"/>
                </mxCell>
                <mxCell id="77" value="" style="group;labelBackgroundColor=none;fontColor=#000000;" parent="76" vertex="1" connectable="0">
                    <mxGeometry width="120" height="70" as="geometry"/>
                </mxCell>
                <mxCell id="78" value="HGB graph" style="rounded=1;whiteSpace=wrap;html=1;fillColor=none;verticalAlign=top;labelBackgroundColor=none;fontColor=#000000;" parent="77" vertex="1">
                    <mxGeometry width="120" height="70" as="geometry"/>
                </mxCell>
                <mxCell id="79" value="" style="curved=1;endArrow=none;html=1;endFill=0;entryX=0;entryY=0.75;entryDx=0;entryDy=0;labelBackgroundColor=none;fontColor=#000000;strokeColor=#424242;" parent="77" source="78" target="78" edge="1">
                    <mxGeometry width="50" height="50" relative="1" as="geometry">
                        <mxPoint x="40" y="60" as="sourcePoint"/>
                        <mxPoint x="70" y="50" as="targetPoint"/>
                        <Array as="points">
                            <mxPoint x="90" y="30"/>
                            <mxPoint x="70" y="53"/>
                            <mxPoint x="40" y="35"/>
                            <mxPoint x="20" y="30"/>
                        </Array>
                    </mxGeometry>
                </mxCell>
                <mxCell id="80" value="" style="group;labelBackgroundColor=none;fontColor=#000000;strokeColor=#000000;" parent="1" vertex="1" connectable="0">
                    <mxGeometry x="420" y="490" width="370" height="160" as="geometry"/>
                </mxCell>
                <mxCell id="81" value="key: patients/123/pathology/&lt;b&gt;HGB&lt;/b&gt;/&amp;lt;last_observed_at_date&amp;gt;" style="rounded=0;whiteSpace=wrap;html=1;fillColor=#CCFFFF;verticalAlign=top;horizontal=1;labelBackgroundColor=none;fontColor=#000000;strokeColor=#0F0F0F;" parent="80" vertex="1">
                    <mxGeometry width="370" height="160" as="geometry"/>
                </mxCell>
                <mxCell id="82" value="&lt;pre style=&quot;text-align: left&quot;&gt;&lt;span&gt;[&lt;br&gt;&lt;/span&gt;&lt;span&gt;&amp;nbsp; [2020-02-01],21.0],&lt;br&gt;&lt;/span&gt;&lt;span&gt;&amp;nbsp; [2020-02-02],22.0],&lt;br&gt;&lt;/span&gt;&lt;span&gt;  ...&lt;br&gt;&lt;/span&gt;&lt;span&gt;&amp;nbsp; [2020-02-03],23.0]&lt;br&gt;&lt;/span&gt;&lt;span&gt;]&lt;/span&gt;&lt;/pre&gt;" style="text;html=1;strokeColor=none;fillColor=none;align=center;verticalAlign=middle;whiteSpace=wrap;rounded=0;labelBackgroundColor=none;fontColor=#000000;" parent="80" vertex="1">
                    <mxGeometry x="20" y="35" width="240" height="110" as="geometry"/>
                </mxCell>
                <mxCell id="83" value="key: patients/123/pathology/PLT/&amp;lt;last_observed_at_date&amp;gt;" style="rounded=0;whiteSpace=wrap;html=1;fillColor=#CCFFFF;verticalAlign=top;horizontal=1;labelBackgroundColor=none;fontColor=#000000;strokeColor=#000000;" parent="1" vertex="1">
                    <mxGeometry x="420" y="660" width="370" height="30" as="geometry"/>
                </mxCell>
                <mxCell id="84" value="etc" style="rounded=0;whiteSpace=wrap;html=1;fillColor=#CCFFFF;verticalAlign=top;horizontal=1;labelBackgroundColor=none;fontColor=#000000;strokeColor=#000000;" parent="1" vertex="1">
                    <mxGeometry x="420" y="700" width="370" height="30" as="geometry"/>
                </mxCell>
                <mxCell id="85" value="&lt;b&gt;PathologyObservationsController&lt;br&gt;&lt;br&gt;# GET json&lt;br&gt;# Url&amp;nbsp;&lt;/b&gt;&lt;span style=&quot;text-align: center&quot;&gt;patients/123/pathology/HGB/&lt;/span&gt;&lt;b&gt;&lt;br&gt;def index&lt;br&gt;&amp;nbsp; &amp;nbsp; return json from redis cache if available&lt;br&gt;&amp;nbsp; &amp;nbsp; otherwise generate json and add to cache&lt;br&gt;&amp;nbsp; &amp;nbsp; use key of url + latest HGB observation date&lt;br&gt;&amp;nbsp; &amp;nbsp; derived form&amp;nbsp;&lt;/b&gt;&lt;span style=&quot;text-align: center&quot;&gt;pathology_current_results&lt;/span&gt;&lt;b&gt;&lt;br&gt;end&lt;br&gt;&lt;br&gt;&lt;/b&gt;" style="rounded=0;whiteSpace=wrap;html=1;fillColor=#FFFF99;align=left;spacing=12;verticalAlign=top;labelBackgroundColor=none;fontColor=#000000;strokeColor=#050505;" parent="1" vertex="1">
                    <mxGeometry x="445" y="190" width="320" height="180" as="geometry"/>
                </mxCell>
                <mxCell id="86" value="" style="endArrow=classic;startArrow=classic;html=1;entryX=0.5;entryY=1;entryDx=0;entryDy=0;labelBackgroundColor=none;fontColor=#000000;strokeColor=#121212;" parent="1" source="81" target="85" edge="1">
                    <mxGeometry width="50" height="50" relative="1" as="geometry">
                        <mxPoint x="410" y="280" as="sourcePoint"/>
                        <mxPoint x="460" y="230" as="targetPoint"/>
                    </mxGeometry>
                </mxCell>
                <mxCell id="87" value="Actor" style="shape=umlActor;verticalLabelPosition=bottom;labelBackgroundColor=none;verticalAlign=top;html=1;outlineConnect=0;fillColor=none;fontColor=#000000;strokeColor=#030303;" parent="1" vertex="1">
                    <mxGeometry x="40" y="30" width="30" height="60" as="geometry"/>
                </mxCell>
                <mxCell id="88" value="" style="endArrow=classic;html=1;fontColor=#000000;entryX=0;entryY=0.25;entryDx=0;entryDy=0;exitX=1;exitY=0.5;exitDx=0;exitDy=0;labelBackgroundColor=none;strokeColor=#050505;" parent="1" source="74" target="85" edge="1">
                    <mxGeometry width="50" height="50" relative="1" as="geometry">
                        <mxPoint x="570" y="450" as="sourcePoint"/>
                        <mxPoint x="620" y="400" as="targetPoint"/>
                    </mxGeometry>
                </mxCell>
                <mxCell id="89" value="" style="endArrow=classic;html=1;fontColor=#000000;exitX=1;exitY=0.25;exitDx=0;exitDy=0;labelBackgroundColor=none;strokeColor=#121212;" parent="1" source="91" target="85" edge="1">
                    <mxGeometry width="50" height="50" relative="1" as="geometry">
                        <mxPoint x="570" y="530" as="sourcePoint"/>
                        <mxPoint x="620" y="480" as="targetPoint"/>
                    </mxGeometry>
                </mxCell>
                <mxCell id="90" value="" style="group;labelBackgroundColor=none;fontColor=#000000;" parent="1" vertex="1" connectable="0">
                    <mxGeometry x="140" y="470" width="240" height="120" as="geometry"/>
                </mxCell>
                <mxCell id="91" value="pathology_current_results" style="whiteSpace=wrap;html=1;labelBackgroundColor=none;fillColor=#FFCCCC;fontColor=#000000;strokeColor=#000000;" parent="90" vertex="1">
                    <mxGeometry width="180" height="30" as="geometry"/>
                </mxCell>
                <mxCell id="92" value="pathology_observations" style="whiteSpace=wrap;html=1;labelBackgroundColor=none;fillColor=#FFCCCC;fontColor=#000000;strokeColor=#000000;" parent="90" vertex="1">
                    <mxGeometry y="70" width="180" height="30" as="geometry"/>
                </mxCell>
                <mxCell id="93" value="" style="endArrow=classic;html=1;fontColor=#000000;entryX=0.5;entryY=1;entryDx=0;entryDy=0;exitX=0.5;exitY=0;exitDx=0;exitDy=0;labelBackgroundColor=none;strokeColor=#000000;" parent="90" source="92" target="91" edge="1">
                    <mxGeometry width="50" height="50" relative="1" as="geometry">
                        <mxPoint x="420" y="-40" as="sourcePoint"/>
                        <mxPoint x="470" y="-90" as="targetPoint"/>
                    </mxGeometry>
                </mxCell>
                <mxCell id="94" value="trigger updates" style="text;html=1;strokeColor=none;fillColor=none;align=center;verticalAlign=middle;whiteSpace=wrap;rounded=0;shadow=0;glass=0;fontColor=#000000;labelBackgroundColor=none;" parent="90" vertex="1">
                    <mxGeometry x="40" y="40" width="200" height="20" as="geometry"/>
                </mxCell>
                <mxCell id="95" value="redis" style="shape=cylinder;whiteSpace=wrap;html=1;boundedLbl=1;backgroundOutline=1;rounded=0;shadow=0;glass=0;fillColor=#CCFFFF;fontColor=#000000;labelBackgroundColor=none;labelBorderColor=none;strokeColor=#696969;" parent="1" vertex="1">
                    <mxGeometry x="370" y="610" width="60" height="80" as="geometry"/>
                </mxCell>
                <mxCell id="96" value="postgres" style="shape=cylinder;whiteSpace=wrap;html=1;boundedLbl=1;backgroundOutline=1;labelBackgroundColor=none;fontColor=#000000;fillColor=#FFCCCC;strokeColor=#999999;" parent="1" vertex="1">
                    <mxGeometry x="90" y="480" width="60" height="80" as="geometry"/>
                </mxCell>
                <mxCell id="97" value="Background processing of lab data using delayed_job etc" style="rounded=0;whiteSpace=wrap;html=1;shadow=0;glass=0;strokeColor=#000000;fillColor=#ffffff;fontColor=#000000;labelBackgroundColor=none;" parent="1" vertex="1">
                    <mxGeometry x="140" y="670" width="180" height="60" as="geometry"/>
                </mxCell>
                <mxCell id="98" value="" style="endArrow=classic;html=1;fontColor=#000000;labelBackgroundColor=none;strokeColor=#050505;" parent="1" source="97" target="92" edge="1">
                    <mxGeometry width="50" height="50" relative="1" as="geometry">
                        <mxPoint x="180" y="630" as="sourcePoint"/>
                        <mxPoint x="260" y="590" as="targetPoint"/>
                    </mxGeometry>
                </mxCell>
                <mxCell id="99" value="Insert&amp;nbsp; incoming path results" style="edgeLabel;html=1;align=center;verticalAlign=middle;resizable=0;points=[];fontColor=#000000;labelBackgroundColor=none;" parent="98" vertex="1" connectable="0">
                    <mxGeometry x="0.3456" y="3" relative="1" as="geometry">
                        <mxPoint x="3" y="10" as="offset"/>
                    </mxGeometry>
                </mxCell>
                <mxCell id="100" value="&lt;font color=&quot;#030303&quot;&gt;Fetching graph data async letsthe page show more quickly. However we can still render partials/components on the server if that the json is from rails cache (redis).&lt;br&gt;Fetching json from browser, we can't use htp caching becuase of security, so there are always going to be 100 queries if there are 100 sparkllines/grphs on the page. For this reason we mays as well render markup and embed json data on the server and return the whole lot - but as a js&lt;br&gt;Starting to think the answer to slow pages is going to be database optimisation within partial indexes/mat views, and redis caching. And when there are 100 graphs on a page, take the hit on the sever??&lt;br&gt;&lt;/font&gt;" style="text;html=1;strokeColor=none;fillColor=none;align=left;verticalAlign=middle;whiteSpace=wrap;rounded=0;" vertex="1" parent="1">
                    <mxGeometry x="387" y="40" width="436" height="100" as="geometry"/>
                </mxCell>
                <mxCell id="101" value="NO HTTP caching!" style="text;html=1;strokeColor=none;fillColor=none;align=center;verticalAlign=middle;whiteSpace=wrap;rounded=0;fontColor=#000000;" vertex="1" parent="1">
                    <mxGeometry x="380" y="190" width="40" height="20" as="geometry"/>
                </mxCell>
                <mxCell id="102" value="Rails cache (redis)" style="text;html=1;strokeColor=none;fillColor=none;align=center;verticalAlign=middle;whiteSpace=wrap;rounded=0;fontColor=#000000;" vertex="1" parent="1">
                    <mxGeometry x="420" y="460" width="150" height="20" as="geometry"/>
                </mxCell>
            </root>
        </mxGraphModel>
    </diagram>
</mxfile>
